<svg width="817" height="287" viewBox="0 0 817 287" fill="none" xmlns="http://www.w3.org/2000/svg">
<path d="M292.857 155.95H14.5288V148.69H292.857V155.95Z" fill="#BBBBBB"/>
<path d="M25.7778 81.7802C25.7778 73.6332 28.8421 65.8895 34.9708 58.5491C41.0994 51.2088 47.9941 47.4983 55.6548 47.4176C59.7675 47.4176 63.3963 49.3939 66.5412 53.3464C67.8314 50.9265 69.6862 49.7165 72.1053 49.7165C73.1537 49.7165 74.081 50.0392 74.8874 50.6845C75.6938 51.3298 76.097 52.1364 76.097 53.1044C76.097 54.153 74.6052 60.6061 71.6215 72.4636C68.6378 84.3211 67.1057 91.0161 67.025 92.5487C67.025 94.5653 67.3073 95.8962 67.8718 96.5416C68.4362 97.1869 69.283 97.5498 70.4119 97.6305C71.1377 97.5498 71.9441 97.1869 72.8311 96.5416C74.5245 94.9283 76.1777 91.0565 77.7904 84.926C78.2743 83.3128 78.6775 82.4658 79 82.3851C79.1613 82.3045 79.5645 82.2642 80.2096 82.2642H80.6935C82.2256 82.2642 82.9917 82.6271 82.9917 83.3531C82.9917 83.8371 82.7901 84.926 82.3869 86.62C81.9837 88.3139 81.1773 90.4918 79.9677 93.1537C78.7581 95.8156 77.4679 97.8322 76.097 99.2034C75.0487 100.252 73.7585 101.099 72.2263 101.744C71.5812 101.906 70.6135 101.986 69.3233 101.986C66.5815 101.986 64.2833 101.381 62.4286 100.171C60.5739 98.9615 59.3643 97.7112 58.7998 96.4206L58.074 94.6056C57.9934 94.525 57.8321 94.5653 57.5902 94.7266C57.4289 94.888 57.2676 95.0493 57.1064 95.2106C52.3486 99.7278 47.5102 101.986 42.5912 101.986C38.156 101.986 34.245 100.373 30.8581 97.1465C27.4713 93.92 25.7778 88.7979 25.7778 81.7802ZM64.243 61.09C64.243 60.6061 64.0414 59.7188 63.6382 58.4281C63.235 57.1375 62.3076 55.7259 60.8561 54.1933C59.4046 52.6607 57.5499 51.8541 55.292 51.7734C52.4696 51.7734 49.7681 53.0237 47.1877 55.5243C44.6072 58.0248 42.5912 61.2917 41.1397 65.3249C38.8011 71.6973 37.148 78.3117 36.1804 85.168C36.1804 85.41 36.1804 85.8537 36.1804 86.499C36.1804 87.1443 36.14 87.6283 36.0594 87.9509C36.0594 91.5808 36.7852 94.0813 38.2367 95.4526C39.6882 96.8239 41.4219 97.5498 43.4379 97.6305C46.5022 97.6305 49.5262 96.2996 52.5099 93.6377C55.4936 90.9758 57.2676 88.9189 57.8321 87.4669C57.9934 87.1443 59.082 82.8288 61.098 74.5205C63.114 66.2122 64.1623 61.7353 64.243 61.09Z" fill="#BBBBBB"/>
<path d="M119.4 72.1009C119.4 72.1009 119.4 71.5765 119.4 70.5279C119.4 69.4793 119.965 68.6727 121.094 68.108H157.261V49.9588L157.382 31.8095C158.188 30.7609 158.954 30.2366 159.68 30.2366C160.728 30.2366 161.535 30.8416 162.099 32.0515V68.108H198.145C199.355 68.7533 199.959 69.56 199.959 70.5279C199.959 71.4959 199.355 72.3025 198.145 72.9478H162.099V109.004C161.454 110.134 160.728 110.698 159.922 110.698H159.68H159.438C158.47 110.698 157.745 110.134 157.261 109.004V72.9478H121.094C119.965 72.3832 119.4 71.5765 119.4 70.5279V72.1009Z" fill="#BBBBBB"/>
<path d="M242.538 22.4928C242.538 21.6861 242.699 20.7585 243.021 19.7099C243.344 18.6612 243.828 18.1369 244.473 18.1369C244.554 18.1369 247.457 17.9353 253.182 17.532C258.907 17.1286 261.851 16.8867 262.012 16.806C262.98 16.806 263.464 17.169 263.464 17.8949C263.464 18.6209 262.093 24.3883 259.351 35.1972C258.706 37.9398 258.02 40.763 257.295 43.6669C256.569 46.5707 255.964 48.7487 255.48 50.2006L254.996 52.4995C254.996 52.7415 255.238 52.6205 255.722 52.1365C259.674 48.91 263.746 47.2967 267.939 47.2967C272.939 47.2967 276.971 49.152 280.035 52.8625C283.099 56.573 284.672 61.2515 284.752 66.8979C284.752 75.8515 281.567 83.9582 275.197 91.2179C268.826 98.4776 261.972 102.107 254.634 102.107C250.602 102.107 246.932 100.575 243.626 97.5096C240.32 94.4444 238.627 89.4836 238.546 82.6272V81.5383C238.546 79.8444 238.868 77.5051 239.514 74.5206C240.159 71.536 242.134 63.5907 245.441 50.6846C249.473 34.7939 251.489 26.3646 251.489 25.3966C251.489 24.4287 249.956 23.864 246.892 23.7027C246.489 23.7027 246.166 23.7027 245.924 23.7027H245.32C244.513 23.7027 243.989 23.7027 243.747 23.7027C243.505 23.7027 243.223 23.5817 242.9 23.3397C242.578 23.0977 242.457 22.8154 242.538 22.4928ZM274.35 61.4531V60.7272C274.35 54.7581 271.89 51.7735 266.971 51.7735C265.601 51.7735 264.189 52.0962 262.738 52.7415C261.286 53.3868 259.956 54.2338 258.746 55.2824C257.537 56.331 256.488 57.299 255.601 58.1863C254.714 59.0736 253.988 59.9609 253.424 60.8481L252.698 61.8161L250.158 72.2217C248.384 79.1587 247.497 84.0792 247.497 86.9831C247.497 90.8549 248.465 93.7588 250.4 95.6947C251.69 96.9853 253.303 97.6306 255.238 97.6306C257.899 97.6306 260.601 96.34 263.343 93.7588C265.359 91.9035 266.971 89.6449 268.181 86.9831C269.391 84.3212 270.721 80.0863 272.173 74.2786C273.624 68.4708 274.35 64.1957 274.35 61.4531Z" fill="#BBBBBB"/>
<path d="M125.69 246.575C125.69 238.428 128.755 230.684 134.883 223.344C141.012 216.004 147.907 212.293 155.567 212.213C159.68 212.213 163.309 214.189 166.454 218.141C167.744 215.721 169.599 214.511 172.018 214.511C173.066 214.511 173.994 214.834 174.8 215.479C175.606 216.125 176.01 216.931 176.01 217.899C176.01 218.948 174.518 225.401 171.534 237.258C168.55 249.116 167.018 255.811 166.938 257.344C166.938 259.36 167.22 260.691 167.784 261.336C168.349 261.982 169.196 262.345 170.325 262.425C171.05 262.345 171.857 261.982 172.744 261.336C174.437 259.723 176.09 255.851 177.703 249.721C178.187 248.108 178.59 247.261 178.913 247.18C179.074 247.099 179.477 247.059 180.122 247.059H180.606C182.138 247.059 182.904 247.422 182.904 248.148C182.904 248.632 182.703 249.721 182.3 251.415C181.896 253.109 181.09 255.287 179.88 257.949C178.671 260.611 177.38 262.627 176.01 263.998C174.961 265.047 173.671 265.894 172.139 266.539C171.494 266.701 170.526 266.781 169.236 266.781C166.494 266.781 164.196 266.176 162.341 264.966C160.486 263.756 159.277 262.506 158.712 261.215L157.987 259.401C157.906 259.32 157.745 259.36 157.503 259.522C157.342 259.683 157.18 259.844 157.019 260.006C152.261 264.523 147.423 266.781 142.504 266.781C138.069 266.781 134.158 265.168 130.771 261.941C127.384 258.715 125.69 253.593 125.69 246.575ZM164.156 225.885C164.156 225.401 163.954 224.514 163.551 223.223C163.148 221.932 162.22 220.521 160.769 218.988C159.317 217.456 157.462 216.649 155.205 216.568C152.382 216.568 149.681 217.819 147.1 220.319C144.52 222.82 142.504 226.087 141.052 230.12C138.714 236.492 137.061 243.107 136.093 249.963C136.093 250.205 136.093 250.649 136.093 251.294C136.093 251.939 136.053 252.423 135.972 252.746C135.972 256.376 136.698 258.876 138.149 260.248C139.601 261.619 141.335 262.345 143.351 262.425C146.415 262.425 149.439 261.094 152.422 258.433C155.406 255.771 157.18 253.714 157.745 252.262C157.906 251.939 158.995 247.624 161.011 239.315C163.027 231.007 164.075 226.53 164.156 225.885Z" fill="#BBBBBB"/>
<path d="M347.772 140.584C347.772 139.535 348.337 138.728 349.466 138.164H426.517C427.727 138.809 428.332 139.616 428.332 140.584C428.332 141.471 427.767 142.237 426.638 142.883L388.173 143.004H349.708C348.418 142.6 347.772 141.794 347.772 140.584ZM347.772 164.057C347.772 162.847 348.418 162.04 349.708 161.637H426.638C427.767 162.443 428.332 163.25 428.332 164.057C428.332 165.105 427.727 165.912 426.517 166.477H349.466C348.337 165.912 347.772 165.105 347.772 164.057Z" fill="#BBBBBB"/>
<path d="M561.871 155.95H483.368V148.69H561.871V155.95Z" fill="#BBBBBB"/>
<path d="M494.617 81.7802C494.617 73.6332 497.681 65.8895 503.81 58.5491C509.939 51.2088 516.833 47.4983 524.494 47.4176C528.607 47.4176 532.236 49.3939 535.381 53.3464C536.671 50.9265 538.526 49.7165 540.945 49.7165C541.993 49.7165 542.92 50.0392 543.727 50.6845C544.533 51.3298 544.936 52.1364 544.936 53.1044C544.936 54.153 543.445 60.6061 540.461 72.4636C537.477 84.3211 535.945 91.0161 535.864 92.5487C535.864 94.5653 536.147 95.8962 536.711 96.5416C537.276 97.1869 538.122 97.5498 539.251 97.6305C539.977 97.5498 540.783 97.1869 541.67 96.5416C543.364 94.9283 545.017 91.0565 546.63 84.926C547.114 83.3128 547.517 82.4658 547.839 82.3851C548.001 82.3045 548.404 82.2642 549.049 82.2642H549.533C551.065 82.2642 551.831 82.6271 551.831 83.3531C551.831 83.8371 551.629 84.926 551.226 86.62C550.823 88.3139 550.017 90.4918 548.807 93.1537C547.597 95.8156 546.307 97.8322 544.936 99.2034C543.888 100.252 542.598 101.099 541.066 101.744C540.421 101.906 539.453 101.986 538.163 101.986C535.421 101.986 533.123 101.381 531.268 100.171C529.413 98.9615 528.204 97.7112 527.639 96.4206L526.913 94.6056C526.833 94.525 526.671 94.5653 526.43 94.7266C526.268 94.888 526.107 95.0493 525.946 95.2106C521.188 99.7278 516.35 101.986 511.431 101.986C506.995 101.986 503.084 100.373 499.697 97.1465C496.311 93.92 494.617 88.7979 494.617 81.7802ZM533.082 61.09C533.082 60.6061 532.881 59.7188 532.478 58.4281C532.074 57.1375 531.147 55.7259 529.695 54.1933C528.244 52.6607 526.389 51.8541 524.131 51.7734C521.309 51.7734 518.608 53.0237 516.027 55.5243C513.447 58.0248 511.431 61.2917 509.979 65.3249C507.641 71.6973 505.987 78.3117 505.02 85.168C505.02 85.41 505.02 85.8537 505.02 86.499C505.02 87.1443 504.979 87.6283 504.899 87.9509C504.899 91.5808 505.625 94.0813 507.076 95.4526C508.528 96.8239 510.261 97.5498 512.277 97.6305C515.342 97.6305 518.366 96.2996 521.349 93.6377C524.333 90.9758 526.107 88.9189 526.671 87.4669C526.833 87.1443 527.921 82.8288 529.937 74.5205C531.953 66.2122 533.002 61.7353 533.082 61.09Z" fill="#BBBBBB"/>
<path d="M505.504 190.796C505.504 189.99 505.665 189.062 505.988 188.014C506.31 186.965 506.794 186.441 507.439 186.441C507.52 186.441 510.423 186.239 516.148 185.836C521.874 185.432 524.817 185.19 524.978 185.11C525.946 185.11 526.43 185.473 526.43 186.199C526.43 186.925 525.059 192.692 522.317 203.501C521.672 206.243 520.987 209.067 520.261 211.971C519.535 214.874 518.93 217.052 518.447 218.504L517.963 220.803C517.963 221.045 518.205 220.924 518.688 220.44C522.64 217.214 526.712 215.6 530.905 215.6C535.905 215.6 539.937 217.456 543.001 221.166C546.066 224.877 547.638 229.555 547.719 235.202C547.719 244.155 544.533 252.262 538.163 259.522C531.792 266.781 524.938 270.411 517.6 270.411C513.568 270.411 509.899 268.879 506.593 265.813C503.286 262.748 501.593 257.787 501.512 250.931V249.842C501.512 248.148 501.835 245.809 502.48 242.824C503.125 239.84 505.101 231.894 508.407 218.988C512.439 203.098 514.455 194.668 514.455 193.7C514.455 192.732 512.923 192.168 509.858 192.006C509.455 192.006 509.133 192.006 508.891 192.006H508.286C507.48 192.006 506.955 192.006 506.713 192.006C506.472 192.006 506.189 191.885 505.867 191.643C505.544 191.401 505.423 191.119 505.504 190.796ZM537.316 229.757V229.031C537.316 223.062 534.857 220.077 529.938 220.077C528.567 220.077 527.156 220.4 525.704 221.045C524.253 221.691 522.922 222.537 521.712 223.586C520.503 224.635 519.455 225.603 518.568 226.49C517.68 227.377 516.955 228.265 516.39 229.152L515.664 230.12L513.124 240.525C511.35 247.462 510.463 252.383 510.463 255.287C510.463 259.159 511.431 262.062 513.366 263.998C514.656 265.289 516.269 265.934 518.205 265.934C520.866 265.934 523.567 264.644 526.309 262.062C528.325 260.207 529.938 257.949 531.147 255.287C532.357 252.625 533.687 248.39 535.139 242.582C536.59 236.775 537.316 232.499 537.316 229.757Z" fill="#BBBBBB"/>
<path d="M616.787 140.584C616.787 139.535 617.351 138.728 618.48 138.164H695.531C696.741 138.809 697.346 139.616 697.346 140.584C697.346 141.471 696.781 142.237 695.652 142.883L657.187 143.004H618.722C617.432 142.6 616.787 141.794 616.787 140.584ZM616.787 164.057C616.787 162.847 617.432 162.04 618.722 161.637H695.652C696.781 162.443 697.346 163.25 697.346 164.057C697.346 165.105 696.741 165.912 695.531 166.477H618.48C617.351 165.912 616.787 165.105 616.787 164.057Z" fill="#BBBBBB"/>
<path d="M748.874 157.159C748.874 159.902 749.439 162.362 750.568 164.54C751.697 166.718 753.148 168.372 754.922 169.501C756.696 170.63 758.43 171.558 760.123 172.284C761.817 173.01 763.228 173.534 764.357 173.857L766.171 174.099L766.413 173.978L767.986 169.017C769.437 164.339 770.768 160.346 771.978 157.038C773.187 153.731 774.76 150.182 776.695 146.391C778.63 142.6 780.566 139.535 782.501 137.195C784.436 134.856 786.815 132.92 789.638 131.388C792.46 129.855 795.403 129.089 798.468 129.089C802.096 129.089 805.322 130.379 808.144 132.96C810.967 135.542 812.418 139.898 812.499 146.028C812.499 152.32 810.765 158.369 807.298 164.177C803.83 169.985 799.072 174.704 793.024 178.334C786.977 181.963 780.606 183.778 773.913 183.778C771.816 183.778 770.768 183.859 770.768 184.02L769.921 188.376C769.437 191.199 768.873 194.305 768.228 197.693C767.583 201.081 767.139 203.259 766.897 204.227C766.494 206.162 765.446 207.493 763.752 208.219C762.865 208.703 761.857 208.945 760.728 208.945C758.228 208.703 756.979 207.372 756.979 204.952C756.979 204.146 759.196 196.765 763.631 182.81L763.027 182.568C762.623 182.407 762.059 182.205 761.333 181.963C760.607 181.721 759.72 181.358 758.672 180.874C757.624 180.391 756.575 179.826 755.527 179.181C754.479 178.535 753.39 177.809 752.261 177.003C751.132 176.196 750.084 175.188 749.116 173.978C748.148 172.768 747.221 171.477 746.334 170.106C745.447 168.735 744.842 167.162 744.52 165.387C744.197 163.613 743.955 161.677 743.794 159.579C743.794 155.708 744.842 150.827 746.939 144.939C749.036 139.051 751.979 134.211 755.769 130.42H757.341C759.035 130.42 759.882 130.742 759.882 131.388C759.882 131.872 759.559 132.436 758.914 133.081C755.608 136.953 753.148 141.349 751.535 146.27C749.923 151.19 749.036 154.82 748.874 157.159ZM807.177 148.932C807.177 145.544 806.209 142.882 804.274 140.946C802.338 139.01 799.758 138.002 796.532 137.921C792.581 137.921 788.872 139.535 785.404 142.761C781.937 145.988 779.074 150.464 776.816 156.192C775.687 158.934 774.558 163.33 773.429 169.38L772.34 174.825C773.792 174.986 774.598 175.067 774.76 175.067C784.194 175.067 791.936 172.284 797.984 166.718C804.032 161.152 807.096 155.224 807.177 148.932Z" fill="#BBBBBB"/>
</svg>
